<?xml version="1.0" encoding="UTF-8" standalone="no"?>
<svg
   xmlns:dc="http://purl.org/dc/elements/1.1/"
   xmlns:cc="http://creativecommons.org/ns#"
   xmlns:rdf="http://www.w3.org/1999/02/22-rdf-syntax-ns#"
   xmlns:svg="http://www.w3.org/2000/svg"
   xmlns="http://www.w3.org/2000/svg"
   id="svg6742"
   version="1.1"
   viewBox="0 0 36.780701 11.229412"
   height="11.229412mm"
   width="36.780701mm">
  <defs
     id="defs6736" />
  <metadata
     id="metadata6739">
    <rdf:RDF>
      <cc:Work
         rdf:about="">
        <dc:format>image/svg+xml</dc:format>
        <dc:type
           rdf:resource="http://purl.org/dc/dcmitype/StillImage" />
        <dc:title></dc:title>
      </cc:Work>
    </rdf:RDF>
  </metadata>
  <g
     transform="translate(-26.437655,-19.242435)"
     id="layer1">
    <rect
       transform="rotate(-45)"
       rx="0"
       ry="0"
       y="53.604061"
       x="23.551569"
       height="0.49384016"
       width="2.8395796"
       id="rect6635"
       style="fill:#ffffff;stroke:none;stroke-width:0.1;stroke-linecap:round;stroke-miterlimit:4;stroke-dasharray:none;stroke-opacity:1;paint-order:markers fill stroke" />
    <rect
       transform="matrix(-0.70710678,-0.70710678,-0.70710678,0.70710678,0,0)"
       rx="0"
       ry="0"
       y="-26.391138"
       x="-56.443645"
       height="0.49384016"
       width="2.8395796"
       id="rect6635-0"
       style="fill:#ffffff;stroke:none;stroke-width:0.1;stroke-linecap:round;stroke-miterlimit:4;stroke-dasharray:none;stroke-opacity:1;paint-order:markers fill stroke" />
    <rect
       transform="rotate(-45)"
       rx="0"
       ry="0"
       y="54.296749"
       x="22.859018"
       height="0.49384016"
       width="2.8395796"
       id="rect6635-4"
       style="fill:#ffffff;stroke:none;stroke-width:0.1;stroke-linecap:round;stroke-miterlimit:4;stroke-dasharray:none;stroke-opacity:1;paint-order:markers fill stroke" />
    <rect
       transform="matrix(-0.70710678,-0.70710678,-0.70710678,0.70710678,0,0)"
       rx="0"
       ry="0"
       y="-25.698816"
       x="-57.136547"
       height="0.49384016"
       width="2.8395796"
       id="rect6635-0-5"
       style="fill:#ffffff;stroke:none;stroke-width:0.1;stroke-linecap:round;stroke-miterlimit:4;stroke-dasharray:none;stroke-opacity:1;paint-order:markers fill stroke" />
    <rect
       transform="rotate(-45)"
       rx="0"
       ry="0"
       y="55.008266"
       x="22.147501"
       height="0.49384016"
       width="2.8395796"
       id="rect6635-4-7"
       style="fill:#ffffff;stroke:none;stroke-width:0.1;stroke-linecap:round;stroke-miterlimit:4;stroke-dasharray:none;stroke-opacity:1;paint-order:markers fill stroke" />
    <rect
       transform="matrix(-0.70710678,-0.70710678,-0.70710678,0.70710678,0,0)"
       rx="0"
       ry="0"
       y="-24.987314"
       x="-57.848064"
       height="0.49384016"
       width="2.8395796"
       id="rect6635-0-5-1"
       style="fill:#ffffff;stroke:none;stroke-width:0.1;stroke-linecap:round;stroke-miterlimit:4;stroke-dasharray:none;stroke-opacity:1;paint-order:markers fill stroke" />
    <path
       d="m 28.596695,22.788595 c -0.23989,0 -0.48376,0.03158 -0.7307,0.09508 -0.23989,0.05645 -0.45822,0.147921 -0.65578,0.274921 -0.1905,0.119944 -0.34945,0.2789 -0.47645,0.476456 -0.11995,0.197554 -0.17984,0.433832 -0.17984,0.708999 0,0.35278 0.0882,0.628235 0.26459,0.825791 0.17639,0.197554 0.39523,0.352716 0.65629,0.465603 0.26811,0.105834 0.5572,0.190233 0.86764,0.253733 0.31045,0.05644 0.59626,0.12341 0.85732,0.20102 0.26811,0.07056 0.49023,0.165828 0.66662,0.285771 0.17639,0.119946 0.26459,0.296333 0.26459,0.529167 0,0.169333 -0.0425,0.310859 -0.12713,0.423746 -0.0847,0.105833 -0.19357,0.186952 -0.32763,0.243398 -0.127,0.05644 -0.26852,0.0951 -0.42374,0.116271 -0.15523,0.02117 -0.30331,0.03152 -0.44442,0.03152 -0.18345,0 -0.36311,-0.01744 -0.5395,-0.05271 -0.16934,-0.03528 -0.3245,-0.09189 -0.46561,-0.169497 -0.13405,-0.08467 -0.24348,-0.19409 -0.32814,-0.328147 -0.0847,-0.14111 -0.13092,-0.310422 -0.13798,-0.507978 h -0.89917 c 0.0141,0.338666 0.0844,0.628274 0.21136,0.868164 0.127,0.232833 0.29631,0.423375 0.50798,0.571542 0.21166,0.14111 0.45502,0.243456 0.73018,0.306956 0.27517,0.0635 0.56478,0.09509 0.86817,0.09509 0.27517,0 0.5501,-0.0283 0.82527,-0.08475 0.28222,-0.04939 0.53265,-0.140864 0.75138,-0.27492 0.22577,-0.134054 0.40596,-0.310444 0.54002,-0.529167 0.14111,-0.21872 0.21135,-0.494178 0.21135,-0.825788 0,-0.261056 -0.0528,-0.479901 -0.15864,-0.656291 -0.0988,-0.17639 -0.23271,-0.320678 -0.40205,-0.433565 -0.16227,-0.119946 -0.35282,-0.215215 -0.57154,-0.285771 -0.21167,-0.07056 -0.43051,-0.130445 -0.65629,-0.179835 -0.21167,-0.04939 -0.42344,-0.09564 -0.6351,-0.137975 -0.21167,-0.04939 -0.40169,-0.105481 -0.57103,-0.168981 -0.16933,-0.07056 -0.31085,-0.155472 -0.42374,-0.254249 -0.10584,-0.105833 -0.15865,-0.236484 -0.15865,-0.391707 0,-0.141111 0.0354,-0.253815 0.10594,-0.338482 0.0705,-0.09172 0.16203,-0.162483 0.27491,-0.211873 0.11289,-0.05644 0.23647,-0.0951 0.37052,-0.116271 0.14112,-0.02117 0.27884,-0.03152 0.4129,-0.03152 0.14817,0 0.29297,0.01744 0.43408,0.05271 0.14817,0.02822 0.2821,0.07776 0.40204,0.14831 0.11995,0.07056 0.2185,0.165828 0.29611,0.285771 0.0776,0.11289 0.12387,0.257178 0.13798,0.433565 h 0.89917 c -0.0212,-0.33161 -0.0914,-0.606549 -0.21136,-0.825272 -0.11994,-0.225777 -0.28218,-0.402167 -0.48679,-0.529167 -0.19756,-0.134054 -0.42728,-0.226047 -0.68833,-0.275434 -0.26106,-0.05645 -0.54635,-0.08423 -0.8568,-0.08423 z m 5.75727,0 c -0.37394,0 -0.71964,0.07024 -1.03714,0.211358 -0.31045,0.14111 -0.58211,0.338727 -0.81494,0.592727 -0.22578,0.254 -0.40217,0.553964 -0.52917,0.899687 -0.127,0.345723 -0.19068,0.726805 -0.19068,1.143082 0.0141,0.416279 0.074,0.800642 0.17983,1.153419 0.11289,0.352777 0.27892,0.656021 0.49765,0.910021 0.21872,0.254 0.48658,0.451617 0.80408,0.59273 0.32456,0.14111 0.70564,0.211873 1.14308,0.211873 0.62089,0 1.13591,-0.155159 1.54513,-0.465606 0.40922,-0.310443 0.6738,-0.772644 0.79375,-1.386477 h -0.88884 c -0.0776,0.359833 -0.23984,0.627695 -0.48679,0.804085 -0.23989,0.176389 -0.55021,0.264583 -0.93121,0.264583 -0.29633,0 -0.55384,-0.04902 -0.77256,-0.147794 -0.21872,-0.09878 -0.39891,-0.22943 -0.54002,-0.391707 -0.14111,-0.169334 -0.24346,-0.359876 -0.30696,-0.571543 -0.0635,-0.218723 -0.0918,-0.447923 -0.0848,-0.687813 h 4.09588 c 0.0141,-0.33161 -0.0175,-0.681109 -0.0951,-1.047999 -0.0706,-0.366887 -0.205,-0.705514 -0.40256,-1.015958 -0.1905,-0.310443 -0.448,-0.564155 -0.77256,-0.761711 -0.3175,-0.20461 -0.71929,-0.306957 -1.20613,-0.306957 z m 5.61,0 c -0.41628,0 -0.78321,0.07732 -1.10071,0.232543 -0.31045,0.148166 -0.57123,0.352861 -0.7829,0.613918 -0.20461,0.254 -0.35977,0.553963 -0.4656,0.899686 -0.0988,0.345721 -0.14832,0.712653 -0.14832,1.100707 0,0.388056 0.0528,0.754986 0.15865,1.100709 0.10583,0.345723 0.261,0.648967 0.46561,0.910021 0.21166,0.261056 0.47297,0.469029 0.78341,0.624252 0.3175,0.155221 0.68771,0.233061 1.11104,0.233061 0.381,0 0.7305,-0.06697 1.048,-0.201022 0.3175,-0.134054 0.5505,-0.352901 0.69867,-0.656291 h 0.0207 v 2.825668 h 0.89968 v -7.556646 h -0.89968 v 0.730705 h -0.0207 c -0.0988,-0.162277 -0.22236,-0.296725 -0.37052,-0.402558 -0.14111,-0.11289 -0.29299,-0.201083 -0.45527,-0.264583 -0.16228,-0.07056 -0.32452,-0.119573 -0.48679,-0.147796 -0.16228,-0.02822 -0.31416,-0.04237 -0.45527,-0.04237 z m 12.33413,0 c -0.43039,0 -0.81147,0.07404 -1.14308,0.222208 -0.33162,0.148167 -0.61035,0.352862 -0.83613,0.613916 -0.22578,0.254 -0.39509,0.557244 -0.50798,0.910023 -0.11289,0.345721 -0.1695,0.719728 -0.1695,1.121894 0,0.402167 0.0566,0.776174 0.1695,1.121897 0.11289,0.345721 0.2822,0.648965 0.50798,0.910021 0.22578,0.254 0.50451,0.454899 0.83613,0.603065 0.33161,0.14111 0.71269,0.211873 1.14308,0.211873 0.43744,0 0.81801,-0.07076 1.14257,-0.211873 0.33161,-0.148166 0.61034,-0.349065 0.83612,-0.603065 0.22578,-0.261056 0.39509,-0.5643 0.50798,-0.910021 0.11289,-0.345723 0.1695,-0.71973 0.1695,-1.121897 0,-0.402166 -0.0566,-0.776173 -0.1695,-1.121894 -0.11289,-0.352779 -0.2822,-0.656023 -0.50798,-0.910023 -0.22578,-0.261054 -0.50451,-0.465749 -0.83612,-0.613916 -0.32456,-0.148167 -0.70513,-0.222208 -1.14257,-0.222208 z m 8.30647,0 c -0.31045,0 -0.60333,0.03158 -0.8785,0.09508 -0.26811,0.0635 -0.50819,0.169127 -0.71985,0.317294 -0.21167,0.141113 -0.38098,0.328374 -0.50798,0.561208 -0.127,0.232833 -0.19725,0.518644 -0.21136,0.857311 h 0.89917 c 0.0212,-0.402167 0.1589,-0.673825 0.4129,-0.814938 0.254,-0.148167 0.57139,-0.222208 0.95239,-0.222208 0.14111,0 0.28264,0.01034 0.42375,0.03152 0.14816,0.02117 0.2783,0.06362 0.39119,0.127124 0.11994,0.0635 0.21521,0.154975 0.28577,0.274918 0.0776,0.119944 0.11679,0.2789 0.11679,0.476457 0,0.169333 -0.0495,0.299984 -0.14831,0.391708 -0.0988,0.08467 -0.23271,0.151632 -0.40205,0.201022 -0.16933,0.04233 -0.36695,0.07771 -0.59272,0.105937 -0.21873,0.02117 -0.45172,0.05603 -0.69867,0.105417 -0.23283,0.04233 -0.46203,0.09567 -0.68781,0.159166 -0.21872,0.0635 -0.41634,0.158768 -0.59273,0.285768 -0.16933,0.119947 -0.30706,0.278387 -0.4129,0.475941 -0.10583,0.197556 -0.15864,0.451784 -0.15864,0.762227 0,0.275167 0.0457,0.511445 0.13746,0.709002 0.0988,0.1905 0.22943,0.345659 0.3917,0.465605 0.16228,0.119944 0.35282,0.208138 0.57155,0.264584 0.22577,0.05644 0.46205,0.08475 0.709,0.08475 0.381,0 0.73377,-0.06369 1.05833,-0.190688 0.33161,-0.134054 0.62122,-0.349104 0.86816,-0.645438 0,0.296334 0.067,0.511384 0.20102,0.645438 0.14111,0.127 0.32786,0.190688 0.56069,0.190688 0.27517,0 0.49022,-0.04574 0.64544,-0.137459 v -0.698667 c -0.10583,0.03528 -0.1973,0.05271 -0.27492,0.05271 -0.14111,0 -0.22602,-0.04902 -0.25425,-0.147794 -0.0212,-0.09878 -0.0315,-0.254455 -0.0315,-0.466122 v -2.814814 c 0,-0.3175 -0.0599,-0.575009 -0.17983,-0.772565 -0.11995,-0.197554 -0.2789,-0.349435 -0.47646,-0.455269 -0.19755,-0.112889 -0.41968,-0.18693 -0.66663,-0.222207 -0.23988,-0.03528 -0.48324,-0.05271 -0.73018,-0.05271 z m -16.55765,0.126606 v 3.598749 c 0,0.296333 0.0278,0.567992 0.0842,0.814935 0.0635,0.23989 0.16964,0.447863 0.31781,0.624253 0.14817,0.17639 0.34199,0.314116 0.58188,0.412895 0.23989,0.09172 0.53985,0.137459 0.89968,0.137459 0.40217,0 0.75115,-0.07784 1.04749,-0.233061 0.29633,-0.162279 0.5402,-0.41271 0.7307,-0.751377 h 0.0212 v 0.868165 h 0.84646 v -5.472018 h -0.89969 v 3.090768 c 0,0.246946 -0.0354,0.476146 -0.10593,0.687813 -0.0635,0.204613 -0.16205,0.384281 -0.29611,0.539504 -0.13406,0.15522 -0.30337,0.275516 -0.50798,0.360183 -0.19755,0.08467 -0.43383,0.126608 -0.709,0.126608 -0.34572,0 -0.61738,-0.09855 -0.81494,-0.296106 -0.19754,-0.197556 -0.29661,-0.465936 -0.29661,-0.804603 v -3.704167 z m 12.02097,0 v 5.472018 h 0.89969 v -5.472018 z m -21.76714,0.667144 c 0.22577,0 0.43047,0.04194 0.61391,0.126606 0.1905,0.07761 0.35274,0.187034 0.48679,0.328147 0.14112,0.134054 0.25054,0.296291 0.32815,0.486791 0.0847,0.1905 0.1342,0.391914 0.14831,0.603581 h -3.14348 c 0.0141,-0.211667 0.0604,-0.409284 0.13798,-0.592728 0.0776,-0.1905 0.18324,-0.356534 0.31729,-0.497644 0.13406,-0.141113 0.29302,-0.250534 0.47646,-0.328147 0.1905,-0.08467 0.40175,-0.126606 0.63459,-0.126606 z m 5.75882,0 c 0.31044,0 0.57503,0.05989 0.79375,0.179835 0.21872,0.112887 0.39511,0.264253 0.52917,0.454753 0.14111,0.1905 0.24345,0.413141 0.30695,0.667141 0.0635,0.246944 0.0951,0.504452 0.0951,0.772562 0,0.254 -0.0316,0.504431 -0.0951,0.751377 -0.0564,0.246944 -0.15171,0.46907 -0.28577,0.666626 -0.13405,0.1905 -0.30716,0.34566 -0.51883,0.465603 -0.21167,0.119946 -0.46917,0.179835 -0.77256,0.179835 -0.28928,0 -0.54299,-0.05609 -0.76171,-0.168982 -0.21167,-0.112889 -0.38806,-0.264771 -0.52917,-0.455268 -0.13405,-0.1905 -0.2364,-0.405551 -0.30696,-0.645441 -0.0635,-0.246943 -0.0956,-0.497374 -0.0956,-0.751374 0,-0.268113 0.0283,-0.529415 0.0847,-0.783415 0.0565,-0.254 0.14844,-0.479923 0.27544,-0.677479 0.127,-0.197554 0.29631,-0.355994 0.50798,-0.475938 0.21167,-0.119946 0.46917,-0.179835 0.77256,-0.179835 z m 12.23853,0 c 0.23283,0 0.45116,0.04574 0.65577,0.137459 0.21167,0.09172 0.39513,0.225653 0.55036,0.402043 0.15522,0.17639 0.27551,0.395234 0.36018,0.656291 0.0917,0.254 0.13746,0.546888 0.13746,0.878498 0,0.331613 -0.0457,0.62778 -0.13746,0.888836 -0.0847,0.254 -0.20496,0.469048 -0.36018,0.645438 -0.15523,0.169334 -0.33869,0.299985 -0.55036,0.391708 -0.20461,0.09172 -0.42294,0.137459 -0.65577,0.137459 -0.23284,0 -0.45548,-0.04574 -0.66715,-0.137459 -0.20461,-0.09172 -0.38427,-0.222374 -0.5395,-0.391708 -0.15522,-0.17639 -0.27879,-0.391438 -0.37052,-0.645438 -0.0847,-0.261056 -0.12712,-0.557223 -0.12712,-0.888836 0,-0.33161 0.0425,-0.624498 0.12712,-0.878498 0.0917,-0.261057 0.2153,-0.479901 0.37052,-0.656291 0.15523,-0.17639 0.33489,-0.310319 0.5395,-0.402043 0.21167,-0.09172 0.43431,-0.137459 0.66715,-0.137459 z m 9.45989,1.97869 v 0.920874 c 0,0.127 -0.0316,0.264729 -0.0951,0.412895 -0.0635,0.141111 -0.16257,0.275043 -0.29663,0.402043 -0.13405,0.119943 -0.30665,0.222292 -0.51831,0.306959 -0.21167,0.07761 -0.4659,0.116271 -0.76223,0.116271 -0.14111,0 -0.27504,-0.01416 -0.40204,-0.04238 -0.127,-0.02822 -0.2397,-0.07396 -0.33848,-0.137459 -0.0917,-0.0635 -0.16956,-0.144619 -0.23306,-0.243396 -0.0564,-0.105833 -0.0848,-0.232687 -0.0848,-0.380854 0,-0.22578 0.0495,-0.402167 0.14831,-0.529167 0.10583,-0.134056 0.23976,-0.236402 0.40204,-0.306959 0.16228,-0.07056 0.34574,-0.120089 0.55035,-0.148312 0.20461,-0.03528 0.40603,-0.06358 0.60358,-0.08475 0.20461,-0.02822 0.39844,-0.05981 0.58188,-0.09508 0.18345,-0.04233 0.33153,-0.106021 0.44442,-0.190688 z"
       style="font-style:normal;font-variant:normal;font-weight:normal;font-stretch:normal;font-size:10.58333302px;line-height:1.25;font-family:'Helvetica Neue';-inkscape-font-specification:'Helvetica Neue';letter-spacing:0px;word-spacing:0px;fill:#ffffff;fill-opacity:1;stroke:none;stroke-width:0.26458332"
       id="text6708" />
  </g>
</svg>
